<svg width="20" height="20" viewBox="0 0 20 20" fill="none" xmlns="http://www.w3.org/2000/svg">
<mask id="path-1-inside-1" fill="white">
<path d="M12.2592 9.80759H12.4158C12.7945 9.80759 13.1025 9.49966 13.1025 9.12094V8.65158C13.1025 8.27301 12.7945 7.96494 12.4158 7.96494H12.2847V7.31827H12.8232C13.35 7.31827 13.7785 6.8898 13.7785 6.36307V5.09811C13.7785 4.71085 13.1925 4.71008 13.1925 5.09811V6.36307C13.1925 6.56662 13.0269 6.73233 12.8232 6.73233H7.17656C6.97284 6.73233 6.80727 6.56662 6.80727 6.36307V2.28989H13.1925V3.92136C13.1925 4.30862 13.7785 4.30923 13.7785 3.92136V2.28989H15.3577C16.3742 2.28989 17.2011 1.46301 17.2011 0.446625C17.2011 0.200348 17.0008 0 16.7545 0H3.24529C2.99899 0 2.79863 0.200348 2.79863 0.446625C2.79863 1.46301 3.62572 2.29004 4.64219 2.29004H6.22144V6.36307C6.22144 6.8898 6.64994 7.31827 7.17656 7.31827H7.71509V7.96509H7.584C7.2054 7.96509 6.89731 8.27301 6.89731 8.65158V9.12109C6.89731 9.49966 7.2054 9.80759 7.584 9.80759H7.74057C7.78376 10.0533 7.88142 10.286 8.02914 10.4919L9.54506 12.607C9.58901 12.6683 9.64425 12.7191 9.70697 12.7577V19.7072C9.70697 20.0943 10.293 20.0951 10.293 19.7072V12.7576C10.3555 12.7191 10.4109 12.6682 10.4547 12.607L11.9708 10.4919C12.1185 10.2858 12.2162 10.0533 12.2592 9.80759ZM3.39224 0.585938H16.6075C16.5381 1.21399 16.004 1.7041 15.3577 1.7041H4.64219C3.99577 1.7041 3.46168 1.21399 3.39224 0.585938ZM8.30107 7.31827H11.6987V7.96494H8.30107V7.31827ZM7.48329 9.12094V8.65158C7.48329 8.59604 7.52846 8.55087 7.584 8.55087H12.4158C12.4713 8.55087 12.5165 8.59604 12.5165 8.65158V9.12094C12.5165 9.17664 12.4713 9.22165 12.4158 9.22165H7.584C7.52846 9.22165 7.48329 9.17664 7.48329 9.12094ZM9.99996 12.2359L8.50525 10.1506C8.42986 10.0455 8.37462 9.92981 8.34075 9.80759H11.659C11.6251 9.92966 11.5698 10.0455 11.4945 10.1506L9.99996 12.2359Z"/>
<path d="M10.2928 3.26645C10.2928 2.87918 9.70698 2.87857 9.70698 3.26645V3.51166C9.70698 3.89893 10.2928 3.89954 10.2928 3.51166V3.26645Z"/>
<path d="M9.70698 5.72311V5.96817C9.70698 6.35544 10.293 6.35605 10.293 5.96817V5.72311C10.2928 5.33585 9.70698 5.33508 9.70698 5.72311Z"/>
<path d="M11.3508 4.32434H11.1057C10.7184 4.32434 10.7178 4.91028 11.1057 4.91028H11.3508C11.7381 4.91028 11.7387 4.32434 11.3508 4.32434Z"/>
<path d="M8.89438 4.32434H8.64931C8.26186 4.32434 8.2614 4.91028 8.64931 4.91028H8.89438C9.28183 4.91028 9.28229 4.32434 8.89438 4.32434Z"/>
<path d="M10.5747 5.60639L10.9214 5.95307C11.1952 6.22666 11.61 5.81299 11.3357 5.53864L10.989 5.19196C10.7151 4.91821 10.3005 5.33203 10.5747 5.60639Z"/>
<path d="M9.42501 3.62838L9.0783 3.2817C8.80454 3.00796 8.38977 3.42163 8.664 3.69598L9.0107 4.04266C9.28248 4.31427 9.69954 3.90289 9.42501 3.62838Z"/>
<path d="M10.7815 4.12842C10.9786 4.12842 11.0365 3.96591 11.3355 3.69599C11.4499 3.58154 11.4499 3.39615 11.3355 3.28171C11.221 3.16742 11.0356 3.16742 10.9212 3.28171L10.5745 3.62839C10.3894 3.81348 10.5229 4.12842 10.7815 4.12842Z"/>
<path d="M8.87123 6.03882C9.06809 6.03882 9.12607 5.87631 9.42502 5.60639C9.69878 5.33264 9.28508 4.91775 9.01071 5.19196L8.664 5.53864C8.4789 5.72373 8.61258 6.03882 8.87123 6.03882Z"/>
<path d="M8.48988 17.4783H3.42983C3.26807 17.4783 3.13699 17.6094 3.13699 17.7711C3.13699 17.933 3.26807 18.0641 3.42983 18.0641H8.48988C8.50774 18.0641 8.52208 18.0786 8.52208 18.0963V19.382C8.52208 19.3997 8.50774 19.4141 8.48988 19.4141H1.26093C0.888741 19.4141 0.585983 19.1113 0.585983 18.7392C0.585983 18.3669 0.888741 18.0641 1.26093 18.0641H2.25802C2.41977 18.0641 2.55101 17.933 2.55101 17.7711C2.55101 17.6094 2.41977 17.4782 2.25802 17.4782H1.26093C0.565687 17.4782 0 18.0438 0 18.7392C0 19.4344 0.565687 20 1.26093 20H8.48988C8.83079 20 9.10806 19.7227 9.10806 19.382V18.0963C9.10806 17.7556 8.83079 17.4783 8.48988 17.4783Z"/>
<path d="M18.7389 17.4783H11.51C11.1691 17.4783 10.8918 17.7556 10.8918 18.0963V19.382C10.8918 19.7227 11.1691 20 11.51 20H18.7389C19.4343 20 20 19.4344 20 18.7392C19.9998 18.044 19.4343 17.4783 18.7389 17.4783ZM18.7389 19.4141H11.51C11.4923 19.4141 11.4778 19.3997 11.4778 19.382V18.0963C11.4778 18.0786 11.4923 18.0641 11.51 18.0641H18.7389C19.1113 18.0641 19.414 18.367 19.414 18.7392C19.414 19.1113 19.1111 19.4141 18.7389 19.4141Z"/>
</mask>
<path d="M12.2592 9.80759H12.4158C12.7945 9.80759 13.1025 9.49966 13.1025 9.12094V8.65158C13.1025 8.27301 12.7945 7.96494 12.4158 7.96494H12.2847V7.31827H12.8232C13.35 7.31827 13.7785 6.8898 13.7785 6.36307V5.09811C13.7785 4.71085 13.1925 4.71008 13.1925 5.09811V6.36307C13.1925 6.56662 13.0269 6.73233 12.8232 6.73233H7.17656C6.97284 6.73233 6.80727 6.56662 6.80727 6.36307V2.28989H13.1925V3.92136C13.1925 4.30862 13.7785 4.30923 13.7785 3.92136V2.28989H15.3577C16.3742 2.28989 17.2011 1.46301 17.2011 0.446625C17.2011 0.200348 17.0008 0 16.7545 0H3.24529C2.99899 0 2.79863 0.200348 2.79863 0.446625C2.79863 1.46301 3.62572 2.29004 4.64219 2.29004H6.22144V6.36307C6.22144 6.8898 6.64994 7.31827 7.17656 7.31827H7.71509V7.96509H7.584C7.2054 7.96509 6.89731 8.27301 6.89731 8.65158V9.12109C6.89731 9.49966 7.2054 9.80759 7.584 9.80759H7.74057C7.78376 10.0533 7.88142 10.286 8.02914 10.4919L9.54506 12.607C9.58901 12.6683 9.64425 12.7191 9.70697 12.7577V19.7072C9.70697 20.0943 10.293 20.0951 10.293 19.7072V12.7576C10.3555 12.7191 10.4109 12.6682 10.4547 12.607L11.9708 10.4919C12.1185 10.2858 12.2162 10.0533 12.2592 9.80759ZM3.39224 0.585938H16.6075C16.5381 1.21399 16.004 1.7041 15.3577 1.7041H4.64219C3.99577 1.7041 3.46168 1.21399 3.39224 0.585938ZM8.30107 7.31827H11.6987V7.96494H8.30107V7.31827ZM7.48329 9.12094V8.65158C7.48329 8.59604 7.52846 8.55087 7.584 8.55087H12.4158C12.4713 8.55087 12.5165 8.59604 12.5165 8.65158V9.12094C12.5165 9.17664 12.4713 9.22165 12.4158 9.22165H7.584C7.52846 9.22165 7.48329 9.17664 7.48329 9.12094ZM9.99996 12.2359L8.50525 10.1506C8.42986 10.0455 8.37462 9.92981 8.34075 9.80759H11.659C11.6251 9.92966 11.5698 10.0455 11.4945 10.1506L9.99996 12.2359Z" fill="#1A1A1A"/>
<path d="M10.2928 3.26645C10.2928 2.87918 9.70698 2.87857 9.70698 3.26645V3.51166C9.70698 3.89893 10.2928 3.89954 10.2928 3.51166V3.26645Z" fill="#1A1A1A"/>
<path d="M9.70698 5.72311V5.96817C9.70698 6.35544 10.293 6.35605 10.293 5.96817V5.72311C10.2928 5.33585 9.70698 5.33508 9.70698 5.72311Z" fill="#1A1A1A"/>
<path d="M11.3508 4.32434H11.1057C10.7184 4.32434 10.7178 4.91028 11.1057 4.91028H11.3508C11.7381 4.91028 11.7387 4.32434 11.3508 4.32434Z" fill="#1A1A1A"/>
<path d="M8.89438 4.32434H8.64931C8.26186 4.32434 8.2614 4.91028 8.64931 4.91028H8.89438C9.28183 4.91028 9.28229 4.32434 8.89438 4.32434Z" fill="#1A1A1A"/>
<path d="M10.5747 5.60639L10.9214 5.95307C11.1952 6.22666 11.61 5.81299 11.3357 5.53864L10.989 5.19196C10.7151 4.91821 10.3005 5.33203 10.5747 5.60639Z" fill="#1A1A1A"/>
<path d="M9.42501 3.62838L9.0783 3.2817C8.80454 3.00796 8.38977 3.42163 8.664 3.69598L9.0107 4.04266C9.28248 4.31427 9.69954 3.90289 9.42501 3.62838Z" fill="#1A1A1A"/>
<path d="M10.7815 4.12842C10.9786 4.12842 11.0365 3.96591 11.3355 3.69599C11.4499 3.58154 11.4499 3.39615 11.3355 3.28171C11.221 3.16742 11.0356 3.16742 10.9212 3.28171L10.5745 3.62839C10.3894 3.81348 10.5229 4.12842 10.7815 4.12842Z" fill="#1A1A1A"/>
<path d="M8.87123 6.03882C9.06809 6.03882 9.12607 5.87631 9.42502 5.60639C9.69878 5.33264 9.28508 4.91775 9.01071 5.19196L8.664 5.53864C8.4789 5.72373 8.61258 6.03882 8.87123 6.03882Z" fill="#1A1A1A"/>
<path d="M8.48988 17.4783H3.42983C3.26807 17.4783 3.13699 17.6094 3.13699 17.7711C3.13699 17.933 3.26807 18.0641 3.42983 18.0641H8.48988C8.50774 18.0641 8.52208 18.0786 8.52208 18.0963V19.382C8.52208 19.3997 8.50774 19.4141 8.48988 19.4141H1.26093C0.888741 19.4141 0.585983 19.1113 0.585983 18.7392C0.585983 18.3669 0.888741 18.0641 1.26093 18.0641H2.25802C2.41977 18.0641 2.55101 17.933 2.55101 17.7711C2.55101 17.6094 2.41977 17.4782 2.25802 17.4782H1.26093C0.565687 17.4782 0 18.0438 0 18.7392C0 19.4344 0.565687 20 1.26093 20H8.48988C8.83079 20 9.10806 19.7227 9.10806 19.382V18.0963C9.10806 17.7556 8.83079 17.4783 8.48988 17.4783Z" fill="#1A1A1A"/>
<path d="M18.7389 17.4783H11.51C11.1691 17.4783 10.8918 17.7556 10.8918 18.0963V19.382C10.8918 19.7227 11.1691 20 11.51 20H18.7389C19.4343 20 20 19.4344 20 18.7392C19.9998 18.044 19.4343 17.4783 18.7389 17.4783ZM18.7389 19.4141H11.51C11.4923 19.4141 11.4778 19.3997 11.4778 19.382V18.0963C11.4778 18.0786 11.4923 18.0641 11.51 18.0641H18.7389C19.1113 18.0641 19.414 18.367 19.414 18.7392C19.414 19.1113 19.1111 19.4141 18.7389 19.4141Z" fill="#1A1A1A"/>
<path d="M12.2592 9.80759H12.4158C12.7945 9.80759 13.1025 9.49966 13.1025 9.12094V8.65158C13.1025 8.27301 12.7945 7.96494 12.4158 7.96494H12.2847V7.31827H12.8232C13.35 7.31827 13.7785 6.8898 13.7785 6.36307V5.09811C13.7785 4.71085 13.1925 4.71008 13.1925 5.09811V6.36307C13.1925 6.56662 13.0269 6.73233 12.8232 6.73233H7.17656C6.97284 6.73233 6.80727 6.56662 6.80727 6.36307V2.28989H13.1925V3.92136C13.1925 4.30862 13.7785 4.30923 13.7785 3.92136V2.28989H15.3577C16.3742 2.28989 17.2011 1.46301 17.2011 0.446625C17.2011 0.200348 17.0008 0 16.7545 0H3.24529C2.99899 0 2.79863 0.200348 2.79863 0.446625C2.79863 1.46301 3.62572 2.29004 4.64219 2.29004H6.22144V6.36307C6.22144 6.8898 6.64994 7.31827 7.17656 7.31827H7.71509V7.96509H7.584C7.2054 7.96509 6.89731 8.27301 6.89731 8.65158V9.12109C6.89731 9.49966 7.2054 9.80759 7.584 9.80759H7.74057C7.78376 10.0533 7.88142 10.286 8.02914 10.4919L9.54506 12.607C9.58901 12.6683 9.64425 12.7191 9.70697 12.7577V19.7072C9.70697 20.0943 10.293 20.0951 10.293 19.7072V12.7576C10.3555 12.7191 10.4109 12.6682 10.4547 12.607L11.9708 10.4919C12.1185 10.2858 12.2162 10.0533 12.2592 9.80759ZM3.39224 0.585938H16.6075C16.5381 1.21399 16.004 1.7041 15.3577 1.7041H4.64219C3.99577 1.7041 3.46168 1.21399 3.39224 0.585938ZM8.30107 7.31827H11.6987V7.96494H8.30107V7.31827ZM7.48329 9.12094V8.65158C7.48329 8.59604 7.52846 8.55087 7.584 8.55087H12.4158C12.4713 8.55087 12.5165 8.59604 12.5165 8.65158V9.12094C12.5165 9.17664 12.4713 9.22165 12.4158 9.22165H7.584C7.52846 9.22165 7.48329 9.17664 7.48329 9.12094ZM9.99996 12.2359L8.50525 10.1506C8.42986 10.0455 8.37462 9.92981 8.34075 9.80759H11.659C11.6251 9.92966 11.5698 10.0455 11.4945 10.1506L9.99996 12.2359Z" stroke="#D60000" stroke-width="2" mask="url(#path-1-inside-1)"/>
<path d="M10.2928 3.26645C10.2928 2.87918 9.70698 2.87857 9.70698 3.26645V3.51166C9.70698 3.89893 10.2928 3.89954 10.2928 3.51166V3.26645Z" stroke="#D60000" stroke-width="2" mask="url(#path-1-inside-1)"/>
<path d="M9.70698 5.72311V5.96817C9.70698 6.35544 10.293 6.35605 10.293 5.96817V5.72311C10.2928 5.33585 9.70698 5.33508 9.70698 5.72311Z" stroke="#D60000" stroke-width="2" mask="url(#path-1-inside-1)"/>
<path d="M11.3508 4.32434H11.1057C10.7184 4.32434 10.7178 4.91028 11.1057 4.91028H11.3508C11.7381 4.91028 11.7387 4.32434 11.3508 4.32434Z" stroke="#D60000" stroke-width="2" mask="url(#path-1-inside-1)"/>
<path d="M8.89438 4.32434H8.64931C8.26186 4.32434 8.2614 4.91028 8.64931 4.91028H8.89438C9.28183 4.91028 9.28229 4.32434 8.89438 4.32434Z" stroke="#D60000" stroke-width="2" mask="url(#path-1-inside-1)"/>
<path d="M10.5747 5.60639L10.9214 5.95307C11.1952 6.22666 11.61 5.81299 11.3357 5.53864L10.989 5.19196C10.7151 4.91821 10.3005 5.33203 10.5747 5.60639Z" stroke="#D60000" stroke-width="2" mask="url(#path-1-inside-1)"/>
<path d="M9.42501 3.62838L9.0783 3.2817C8.80454 3.00796 8.38977 3.42163 8.664 3.69598L9.0107 4.04266C9.28248 4.31427 9.69954 3.90289 9.42501 3.62838Z" stroke="#D60000" stroke-width="2" mask="url(#path-1-inside-1)"/>
<path d="M10.7815 4.12842C10.9786 4.12842 11.0365 3.96591 11.3355 3.69599C11.4499 3.58154 11.4499 3.39615 11.3355 3.28171C11.221 3.16742 11.0356 3.16742 10.9212 3.28171L10.5745 3.62839C10.3894 3.81348 10.5229 4.12842 10.7815 4.12842Z" stroke="#D60000" stroke-width="2" mask="url(#path-1-inside-1)"/>
<path d="M8.87123 6.03882C9.06809 6.03882 9.12607 5.87631 9.42502 5.60639C9.69878 5.33264 9.28508 4.91775 9.01071 5.19196L8.664 5.53864C8.4789 5.72373 8.61258 6.03882 8.87123 6.03882Z" stroke="#D60000" stroke-width="2" mask="url(#path-1-inside-1)"/>
<path d="M8.48988 17.4783H3.42983C3.26807 17.4783 3.13699 17.6094 3.13699 17.7711C3.13699 17.933 3.26807 18.0641 3.42983 18.0641H8.48988C8.50774 18.0641 8.52208 18.0786 8.52208 18.0963V19.382C8.52208 19.3997 8.50774 19.4141 8.48988 19.4141H1.26093C0.888741 19.4141 0.585983 19.1113 0.585983 18.7392C0.585983 18.3669 0.888741 18.0641 1.26093 18.0641H2.25802C2.41977 18.0641 2.55101 17.933 2.55101 17.7711C2.55101 17.6094 2.41977 17.4782 2.25802 17.4782H1.26093C0.565687 17.4782 0 18.0438 0 18.7392C0 19.4344 0.565687 20 1.26093 20H8.48988C8.83079 20 9.10806 19.7227 9.10806 19.382V18.0963C9.10806 17.7556 8.83079 17.4783 8.48988 17.4783Z" stroke="#D60000" stroke-width="2" mask="url(#path-1-inside-1)"/>
<path d="M18.7389 17.4783H11.51C11.1691 17.4783 10.8918 17.7556 10.8918 18.0963V19.382C10.8918 19.7227 11.1691 20 11.51 20H18.7389C19.4343 20 20 19.4344 20 18.7392C19.9998 18.044 19.4343 17.4783 18.7389 17.4783ZM18.7389 19.4141H11.51C11.4923 19.4141 11.4778 19.3997 11.4778 19.382V18.0963C11.4778 18.0786 11.4923 18.0641 11.51 18.0641H18.7389C19.1113 18.0641 19.414 18.367 19.414 18.7392C19.414 19.1113 19.1111 19.4141 18.7389 19.4141Z" stroke="#D60000" stroke-width="2" mask="url(#path-1-inside-1)"/>
</svg>
