<svg width="18" height="20" viewBox="0 0 18 20" fill="none" xmlns="http://www.w3.org/2000/svg">
<path d="M10.4856 2.12585L6.90285 1.61422C6.63816 1.57653 6.38979 1.73965 6.32646 1.98669H6.3176C3.69719 1.98669 1.56531 4.04159 1.56531 6.56738V9.2569H0.634958C0.284789 9.2569 0 9.53155 0 9.86908V10.8424C0 11.1673 0.263735 11.4337 0.595698 11.4534V16.785C0.595698 17.1716 1.20248 17.1722 1.20248 16.785V11.4546H2.82114C3.22228 11.4546 3.22291 10.8696 2.82114 10.8696H0.634958C0.619444 10.8696 0.60678 10.8575 0.60678 10.8426V9.86908C0.60678 9.85412 0.619444 9.84192 0.634958 9.84192H4.88099C4.8965 9.84192 4.90917 9.85412 4.90917 9.86908C4.89698 10.8313 4.93529 10.8696 4.88099 10.8696H4.03485C3.63371 10.8696 3.63308 11.4546 4.03485 11.4546H4.31347V19.0236C4.31347 19.2395 4.13126 19.4151 3.90742 19.4151H1.60869C1.38469 19.4151 1.20248 19.2395 1.20248 19.0236V17.9581C1.20248 17.5714 0.595698 17.571 0.595698 17.9581V19.0236C0.595698 19.5619 1.05019 20 1.60869 20H3.90726C4.46592 20 4.92025 19.5619 4.92025 19.0236V15.5547L6.05481 14.942C6.30699 14.8059 6.46371 14.548 6.46371 14.2694V13.0136C6.46371 12.5885 6.10484 12.2426 5.6638 12.2426H4.92025V11.4534C5.25221 11.4337 5.51595 11.1673 5.51595 10.8426V9.86908C5.51595 9.53155 5.23116 9.25705 4.88099 9.25705H3.95064V6.56738C3.95064 5.30945 5.01238 4.28604 6.3176 4.28604H6.329C6.39248 4.53384 6.64181 4.69665 6.90649 4.6582L10.488 4.13864C10.7386 4.10217 10.9273 3.89068 10.9269 3.64639L10.9257 2.61703C10.9255 2.37274 10.7362 2.16156 10.4856 2.12585ZM5.6638 12.8276C5.77034 12.8276 5.85693 12.9111 5.85693 13.0136V14.2694C5.85693 14.3367 5.8191 14.399 5.75815 14.4318L4.92025 14.8842V12.8275L5.6638 12.8276ZM3.34386 6.56738V9.2569H2.17209V6.56738C2.17209 4.36584 4.02868 2.57446 6.31206 2.57156L6.31333 3.70117C4.67567 3.7033 3.34386 4.98825 3.34386 6.56738ZM6.92058 4.06463L6.91836 2.20779L10.3191 2.69333L10.32 3.57132L6.92058 4.06463Z" fill="#D60000"/>
<path d="M14.4236 0.917969V0.290222C14.4236 -0.0964355 13.8166 -0.0970459 13.8166 0.290222V0.917969C13.8166 1.30463 14.4236 1.30524 14.4236 0.917969Z" fill="#D60000"/>
<path d="M13.8166 5.5841V6.21185C13.8166 6.5985 14.4236 6.59896 14.4236 6.21185V5.5841C14.4236 5.19729 13.8166 5.19683 13.8166 5.5841Z" fill="#D60000"/>
<path d="M17.3913 2.95852H16.7399C16.3387 2.95852 16.3382 3.54354 16.7399 3.54354H17.3913C17.7924 3.54354 17.7929 2.95852 17.3913 2.95852Z" fill="#D60000"/>
<path d="M15.9382 1.91222L16.5067 1.36413C16.7904 1.09084 16.3617 0.676719 16.0776 0.950614L15.5091 1.49856C15.2254 1.77199 15.6541 2.18597 15.9382 1.91222Z" fill="#D60000"/>
<path d="M12.1941 4.69391L11.7336 5.13779C11.4499 5.41122 11.8786 5.82519 12.1626 5.55145L12.6232 5.10757C12.9069 4.83414 12.4781 4.42017 12.1941 4.69391Z" fill="#D60000"/>
<path d="M12.4084 1.89376C12.6765 1.89376 12.8148 1.57928 12.6231 1.3945L12.1624 0.950618C11.8789 0.677181 11.4493 1.09039 11.7334 1.36413C12.1539 1.73706 12.2 1.89376 12.4084 1.89376Z" fill="#D60000"/>
<path d="M15.9381 4.58984C15.6545 4.3164 15.2248 4.72961 15.509 5.00351C16.0355 5.47638 16.0792 5.63705 16.2921 5.63705C16.56 5.63705 16.6983 5.32257 16.5066 5.13778L15.9381 4.58984Z" fill="#D60000"/>
<path d="M15.7465 2.8215C15.3392 2.5824 14.301 2.02637 13.4628 2.02637C12.7505 2.02637 12.2132 2.51068 12.2132 3.15293C12.2132 3.79532 12.7505 4.27963 13.4628 4.27963C14.301 4.27963 15.3392 3.7236 15.7465 3.4845C16.0046 3.33313 16.0039 2.97257 15.7465 2.8215ZM13.4628 3.69461C13.0843 3.69461 12.82 3.47183 12.82 3.15293C12.82 2.83402 13.0843 2.61124 13.4628 2.61124C14.0011 2.61124 14.7011 2.92893 15.1277 3.15293C14.7011 3.37692 14.0011 3.69461 13.4628 3.69461Z" fill="#D60000"/>
</svg>
