<svg width="20" height="20" viewBox="0 0 20 20" fill="none" xmlns="http://www.w3.org/2000/svg">
<path d="M19.6665 18H12.6667V14.9899L19.7964 11.9736C19.8812 11.9378 19.9474 11.8685 19.9793 11.7821C20.0112 11.6956 20.006 11.5999 19.9649 11.5176L19.2982 10.1842C19.2203 10.0285 19.0355 9.95883 18.8742 10.0246L10.0002 13.64L1.1261 10.0246C0.964814 9.95883 0.779924 10.0285 0.702127 10.1842L0.0354816 11.5176C-0.00585822 11.5998 -0.0112291 11.6953 0.0201826 11.7816C0.0517571 11.868 0.117673 11.9375 0.202143 11.9736L7.33359 14.9889V18H0.333812C0.149736 18 0.000489238 18.1493 0.000489238 18.3333V19.6667C0.000489238 19.8507 0.149736 20 0.333812 20H19.6665C19.8506 20 19.9998 19.8507 19.9998 19.6667V18.3333C19.9998 18.1493 19.8506 18 19.6665 18ZM1.16045 10.7583L9.87452 14.3086C9.95492 14.3416 10.0453 14.3416 10.1258 14.3086L18.8399 10.7583L19.2095 11.4981L10.0002 15.3153L0.790828 11.4981L1.16045 10.7583ZM8.00023 17.3333H9.33352C9.5176 17.3333 9.66685 17.1841 9.66685 17C9.66685 16.8159 9.5176 16.6667 9.33352 16.6667H8.00023V15.271L9.89487 15.9826C9.96306 16.0057 10.0371 16.0057 10.1055 15.9826L12.0001 15.2723V16.6667H10.6668C10.4827 16.6667 10.3335 16.8159 10.3335 17C10.3335 17.1841 10.4827 17.3333 10.6668 17.3333H12.0001V18H8.00023V17.3333ZM19.3332 19.3333H0.667135V18.6667H19.3332V19.3333Z" fill="#D60000"/>
<path d="M10.0002 8C9.81615 8 9.6669 8.14925 9.6669 8.33334V8.66668C9.6669 8.85077 9.81615 9.00003 10.0002 9.00003C10.1843 9.00003 10.3336 8.85077 10.3336 8.66668V8.33334C10.3336 8.14925 10.1843 8 10.0002 8Z" fill="#D60000"/>
<path fill-rule="evenodd" clip-rule="evenodd" d="M8.09794 9.23567L9.76455 10.9023C9.89475 11.0324 10.1057 11.0324 10.2359 10.9023L11.9025 9.23567C11.965 9.17317 12.0002 9.08838 12.0002 9V6H12.6668C12.8509 6 13.0001 5.85075 13.0001 5.66666V4H15.3334C15.5175 4 15.6667 3.85075 15.6667 3.66667V0.333333C15.6667 0.149251 15.5175 0 15.3334 0H4.66706C4.48298 0 4.33373 0.149251 4.33373 0.333333V3.66667C4.33373 3.85075 4.48298 4 4.66706 4H7.00031V5.66666C7.00031 5.85075 7.14956 6 7.33364 6H8.00028V9C8.00028 9.08838 8.03544 9.17317 8.09794 9.23567ZM10.0002 10.1953L11.3335 8.86198V6H10.3335V7C10.3335 7.18408 10.1843 7.33333 10.0002 7.33333C9.81614 7.33333 9.66689 7.18408 9.66689 7V6H8.66693V8.86198L10.0002 10.1953ZM5.66702 0.666666H5.00038V3.33333H15.0001V0.666666H14.3334V2.33333C14.3334 2.45516 14.2732 2.69882 14.0323 2.69882C13.7913 2.69882 13.6882 2.45516 13.6668 2.33333V0.666666H12.6668V2C12.6668 2.18408 12.5176 2.33333 12.3335 2.33333C12.1494 2.33333 12.0002 2.18408 12.0002 2V0.666666H11.0002V1.66667C11.0002 1.85075 10.8509 2 10.6669 2C10.4828 2 10.3335 1.85075 10.3335 1.66667V0.666666H9.33357V1.66667C9.33357 1.85075 9.18433 2 9.00025 2C8.81617 2 8.66693 1.85075 8.66693 1.66667V0.666666H8.00028V2.33333C8.00028 2.51741 7.85104 2.66667 7.66696 2.66667C7.48288 2.66667 7.33364 2.51741 7.33364 2.33333V0.666666H6.33367V2C6.33367 2.18408 6.18442 2.33333 6.00035 2.33333C5.81627 2.33333 5.66702 2.18408 5.66702 2V0.666666ZM12.3335 4H7.66696V5.33333H12.3335V4Z" fill="#D60000"/>
</svg>
