<svg width="20" height="20" viewBox="0 0 20 20" fill="none" xmlns="http://www.w3.org/2000/svg">
<path fill-rule="evenodd" clip-rule="evenodd" d="M0.188771 15.1119L0.272814 15.0278C0.0140551 14.6489 -0.0300197 14.1427 0.202226 13.7149C0.361854 13.4209 0.626549 13.2071 0.947735 13.1126C1.271 13.0177 1.61252 13.0549 1.90907 13.2177L2.02101 13.2792L3.08607 12.2138C2.82731 11.8349 2.78319 11.3286 3.01549 10.9008C3.17516 10.6068 3.43991 10.3929 3.76114 10.2985C4.08436 10.2036 4.42578 10.2408 4.72233 10.4036L4.83427 10.465L5.89938 9.39967C5.64062 9.02079 5.59655 8.51454 5.82879 8.08678C5.98842 7.79276 6.25312 7.5789 6.57431 7.48449C6.89757 7.38949 7.23909 7.4267 7.53564 7.58954L7.64758 7.65095L8.71269 6.58556C8.45393 6.20669 8.40981 5.70044 8.6421 5.27268C8.80173 4.97866 9.06648 4.76475 9.38766 4.67039C9.71098 4.57539 10.0523 4.61265 10.3489 4.77544L10.4608 4.83684L11.526 3.77146C11.2672 3.39258 11.2231 2.88634 11.4554 2.45857C11.615 2.16456 11.8797 1.9507 12.2009 1.85629C12.5241 1.76128 12.8656 1.79849 13.1622 1.96134L13.2741 2.02274L15.0672 0.229243C15.4822 -0.185902 15.9398 0.0562161 16.1168 0.229169L19.7652 3.87869C20.1904 4.30407 19.9424 4.75576 19.7652 4.92843L19.2407 5.45314C19.4994 5.83201 19.5435 6.33826 19.3113 6.76602C19.1517 7.06004 18.8869 7.27395 18.5657 7.36831C18.4485 7.40275 18.329 7.41982 18.21 7.41982C18.0008 7.41982 17.7935 7.36702 17.6044 7.26326L17.4924 7.2018L17.3835 7.31066C17.3111 7.3831 17.2161 7.41932 17.1212 7.41932C17.0263 7.41932 16.9313 7.3831 16.8588 7.31061C16.7286 7.18038 16.7158 6.9776 16.8197 6.83262L12.1029 4.24416L11.1386 5.20875L15.8505 7.79454L15.8564 7.78865C16.0013 7.64372 16.2362 7.64372 16.3811 7.78865C16.51 7.9175 16.524 8.11736 16.4237 8.26199C16.6857 8.64146 16.7313 9.15038 16.4979 9.58017C16.3383 9.87419 16.0736 10.0881 15.7524 10.1825C15.6352 10.2169 15.5157 10.234 15.3967 10.234C15.1875 10.234 14.9802 10.1812 14.791 10.0774L14.6791 10.016L13.614 11.0814C13.8727 11.4603 13.9169 11.9665 13.6846 12.3943C13.525 12.6883 13.2603 12.9022 12.939 12.9966C12.8218 13.031 12.7023 13.0481 12.5834 13.0481C12.3741 13.0481 12.1668 12.9953 11.9777 12.8915L11.8658 12.8301L10.8007 13.8955C11.0594 14.2744 11.1035 14.7806 10.8713 15.2084C10.7116 15.5024 10.4469 15.7164 10.1257 15.8107C10.0085 15.8452 9.88901 15.8622 9.77004 15.8622C9.5608 15.8622 9.35348 15.8094 9.16437 15.7057L9.05243 15.6443L7.98732 16.7096C8.24608 17.0885 8.2902 17.5948 8.05795 18.0225C7.89833 18.3165 7.63358 18.5305 7.3124 18.6248C7.19521 18.6593 7.07565 18.6763 6.95668 18.6763C6.74744 18.6763 6.54017 18.6236 6.35106 18.5198L6.23912 18.4583L4.88666 19.8112C4.76076 19.9371 4.59545 20 4.43008 20C4.26476 20 4.09945 19.9371 3.97355 19.8112L0.188721 16.0253C-0.0629154 15.7734 -0.0629151 15.3637 0.188771 15.1119ZM15.592 0.754141L19.2405 4.40364L18.6637 4.98049L13.9519 2.39469L15.592 0.754141ZM17.9613 6.61253L12.3184 3.51584C12.0667 3.37769 11.9721 3.06235 12.1075 2.81281C12.1722 2.69351 12.2797 2.60677 12.4101 2.56842C12.458 2.55437 12.507 2.54739 12.5556 2.54739C12.6418 2.54739 12.7273 2.56921 12.8054 2.61211L18.4482 5.70876C18.7 5.84691 18.7946 6.16225 18.6591 6.41179C18.5944 6.53104 18.4869 6.61783 18.3565 6.65617C18.2239 6.69512 18.0835 6.67963 17.9613 6.61253ZM14.7874 9.22881C14.7867 9.22841 14.786 9.22801 14.7854 9.22767L9.50505 6.32994C9.25331 6.19179 9.15873 5.8764 9.29422 5.62691C9.35892 5.50761 9.46642 5.42082 9.59686 5.38252C9.64469 5.36847 9.69367 5.3615 9.74229 5.3615C9.82841 5.3615 9.91394 5.38332 9.99205 5.42617L10.3501 5.62271C10.352 5.6237 10.3538 5.62479 10.3557 5.62578L15.6349 8.52291C15.8866 8.66106 15.9812 8.9764 15.8458 9.22594C15.7811 9.34519 15.6736 9.43198 15.5431 9.47028C15.4104 9.50937 15.2701 9.49373 15.1479 9.42663L14.7874 9.22881ZM9.28957 7.05826L14.0014 9.64405L13.0371 10.6086L8.32522 8.02285L9.28957 7.05826ZM11.9747 12.0432C11.9738 12.0427 11.9728 12.0421 11.9718 12.0416L6.69174 9.14404C6.44005 9.00589 6.34547 8.69055 6.48091 8.44101C6.54562 8.32171 6.6531 8.23497 6.7835 8.19663C6.83138 8.18257 6.88035 8.1756 6.92903 8.1756C7.01515 8.1756 7.10068 8.19742 7.17879 8.24032L7.53801 8.43745C7.5393 8.43814 7.54059 8.43889 7.54187 8.43958L12.8216 11.337C13.0734 11.4752 13.1679 11.7905 13.0325 12.04C12.9678 12.1593 12.8603 12.2461 12.7299 12.2844C12.5973 12.3234 12.4569 12.3078 12.3346 12.2407L11.9747 12.0432ZM6.47626 9.87236L11.1881 12.4582L10.2238 13.4227L5.51196 10.837L6.47626 9.87236ZM7.73271 14.9199L8.37489 15.2723L7.41054 16.2369L2.6987 13.6511L3.663 12.6865L6.27934 14.1223C6.4591 14.2209 6.68457 14.1551 6.78305 13.9755C6.88159 13.7957 6.8159 13.5701 6.63624 13.4716L3.87848 11.9581C3.62674 11.82 3.53216 11.5047 3.6676 11.2551C3.7323 11.1358 3.83984 11.049 3.97029 11.0107C4.10286 10.9718 4.2432 10.9873 4.36548 11.0544L4.72539 11.2519C4.72558 11.252 4.72577 11.2521 4.72595 11.2522L4.72629 11.2524C4.72648 11.2525 4.72667 11.2526 4.72685 11.2527C4.72734 11.253 4.72782 11.2532 4.72831 11.2535L10.0084 14.1511C10.2601 14.2893 10.3546 14.6046 10.2192 14.8541C10.1545 14.9734 10.047 15.0602 9.91656 15.0985C9.78384 15.1375 9.64351 15.1219 9.52132 15.0548L9.16259 14.858C9.16186 14.8576 9.16114 14.8572 9.16043 14.8568C9.16005 14.8566 9.15968 14.8564 9.1593 14.8562C9.15908 14.856 9.15887 14.8559 9.15866 14.8558C9.15842 14.8557 9.15818 14.8556 9.15794 14.8554L8.08956 14.2691C7.9098 14.1705 7.68433 14.2363 7.58585 14.416C7.48731 14.5957 7.553 14.8212 7.73271 14.9199ZM6.35052 17.6727C6.34976 17.6723 6.34902 17.6719 6.34827 17.6715L6.34813 17.6714C6.34785 17.6713 6.34757 17.6711 6.34729 17.671C6.34621 17.6704 6.34513 17.6698 6.34404 17.6692L1.06512 14.7722C0.813434 14.634 0.718854 14.3187 0.854294 14.0692C0.918996 13.9499 1.02649 13.8631 1.15688 13.8248C1.20476 13.8107 1.25374 13.8038 1.30241 13.8038C1.38853 13.8038 1.47406 13.8256 1.55217 13.8685L7.19496 16.9652C7.4467 17.1033 7.54128 17.4187 7.40584 17.6682C7.34114 17.7875 7.23364 17.8742 7.1032 17.9126C6.97048 17.9516 6.83024 17.936 6.70801 17.8689L6.35052 17.6727ZM5.56153 18.0863L4.43018 19.218L0.781676 15.5685L0.849643 15.5005L5.56153 18.0863Z" fill="#D60000"/>
</svg>
