<svg width="52" height="87" viewBox="0 0 52 87" fill="none" xmlns="http://www.w3.org/2000/svg">
<path d="M51 61V13.5C51 9.33333 46 1 36 1C26 1 21.8333 10.1667 21 13.5L16 23.5L4.34455 48.5M51 61C51 74.8071 39.8071 86 26 86C12.1929 86 1 74.8071 1 61C1 47.1929 12.1929 36 26 36C39.8071 36 51 47.1929 51 61ZM41 61.0011C41 69.2853 34.2843 76.0011 26 76.0011C17.7157 76.0011 11 69.2853 11 61.0011C11 52.7168 17.7157 46.0011 26 46.0011C34.2843 46.0011 41 52.7168 41 61.0011Z" stroke="#D60000" stroke-width="2"/>
</svg>
