<svg width="89" height="88" viewBox="0 0 89 88" fill="none" xmlns="http://www.w3.org/2000/svg">
<path d="M52.5882 23.7647H37.4118L2 87H62.7059M52.5882 23.7647L57.6471 13.6471C58.4902 10.2745 62.7059 1 72.8235 1C82.9412 1 88 9.43137 88 13.6471V61.7059M52.5882 23.7647L40.7957 49.0588M62.7059 87C76.6754 87 88 75.6754 88 61.7059M62.7059 87C48.7363 87 37.4118 75.6754 37.4118 61.7059C37.4118 47.7363 48.7363 36.4118 62.7059 36.4118C76.6754 36.4118 88 47.7363 88 61.7059M72.8235 61.7059C72.8235 67.2937 68.2937 71.8235 62.7059 71.8235C57.1181 71.8235 52.5882 67.2937 52.5882 61.7059C52.5882 56.1181 57.1181 51.5882 62.7059 51.5882C68.2937 51.5882 72.8235 56.1181 72.8235 61.7059Z" stroke="#D60000" stroke-width="2"/>
</svg>
