<svg width="16" height="16" viewBox="0 0 16 16" fill="none" xmlns="http://www.w3.org/2000/svg">
<path opacity="0.3" d="M13.2542 16C13.1841 16 13.114 16 13.0439 16C10.7998 15.7217 8.55566 14.9565 6.66219 13.7739C4.90898 12.6609 3.36616 11.1304 2.2441 9.3913C0.981794 7.51304 0.210385 5.28693 0 3.06084C0 2.50432 0.140255 1.94779 0.490896 1.5304C0.841538 1.11301 1.33244 0.834766 1.89346 0.7652C1.96359 0.7652 2.03372 0.7652 2.10385 0.7652H4.2077C5.25962 0.7652 6.17129 1.5304 6.31155 2.57388C6.38168 3.19997 6.52193 3.82608 6.73231 4.3826C7.01283 5.14782 6.80244 5.98261 6.24142 6.6087L5.75052 7.09562C6.59206 8.34779 7.64399 9.46086 8.97643 10.2956L9.46732 9.80868C10.0284 9.25216 10.94 9.04345 11.7114 9.32171C12.2725 9.53041 12.9036 9.66957 13.5348 9.73913C14.5867 9.87826 15.3581 10.7826 15.3581 11.8261V13.913C15.3581 14.4696 15.1477 15.0261 14.7269 15.3739C14.3062 15.7217 13.8153 16 13.2542 16ZM4.2077 2.1565H2.10385C1.89346 2.1565 1.68308 2.29565 1.54282 2.43478C1.47269 2.57391 1.40257 2.71301 1.40257 2.92171C1.61295 4.9391 2.31423 6.88693 3.43628 8.62606C4.48821 10.2261 5.82064 11.6174 7.4336 12.5913C9.1868 13.7043 11.1504 14.4 13.1841 14.6087C13.4646 14.6087 13.6049 14.5391 13.7451 14.4C13.8854 14.2608 13.9555 14.1217 13.9555 13.913V11.8261C13.9555 11.4783 13.675 11.2 13.3244 11.1304C12.6231 11.0609 11.9218 10.8521 11.2205 10.5739C10.94 10.5043 10.6595 10.5043 10.4491 10.713L9.53745 11.6174C9.32706 11.8261 8.97642 11.8956 8.69591 11.7565C6.80244 10.713 5.25962 9.18261 4.2077 7.30435C4.13757 7.02609 4.2077 6.67825 4.41809 6.46956L5.32975 5.56522C5.47 5.42609 5.54014 5.07826 5.47001 4.86957C5.1895 4.17391 5.04924 3.47826 4.90898 2.78261C4.90898 2.43478 4.55834 2.1565 4.2077 2.1565ZM12.553 7.02607C12.2023 7.02607 11.9218 6.81738 11.8517 6.46956C11.6413 5.35651 10.7296 4.52172 9.60758 4.24346C9.25694 4.1739 8.97642 3.82606 9.04655 3.40867C9.11668 3.06084 9.46732 2.78259 9.88809 2.85216C11.5712 3.19998 12.9036 4.45217 13.1841 6.12173C13.2543 6.46956 13.0439 6.88696 12.6231 6.95652C12.6231 6.95652 12.6231 7.02607 12.553 7.02607ZM15.3581 6.95652C15.0075 6.95652 14.7269 6.67824 14.6568 6.33042C14.3763 3.75651 12.3426 1.73913 9.67771 1.3913C9.32707 1.32174 9.04655 0.973888 9.04655 0.626061C9.04655 0.278235 9.46732 0 9.81797 0C13.114 0.347826 15.6386 2.85217 15.9893 6.12173C16.0594 6.46956 15.7789 6.81737 15.3581 6.88693C15.4282 6.9565 15.3581 6.95652 15.3581 6.95652Z" fill="black"/>
</svg>
