<svg width="16" height="13" viewBox="0 0 16 13" fill="none" xmlns="http://www.w3.org/2000/svg">
<g opacity="0.3">
<path fill-rule="evenodd" clip-rule="evenodd" d="M2.18186 1.44444C1.78353 1.44444 1.45459 1.77109 1.45459 2.16667V10.8333C1.45459 11.2289 1.78353 11.5556 2.18186 11.5556H13.8181C14.2165 11.5556 14.5454 11.2289 14.5454 10.8333V2.16667C14.5454 1.77109 14.2165 1.44444 13.8181 1.44444H2.18186ZM5.95023e-05 2.16667C5.95023e-05 0.97335 0.980208 0 2.18186 0H13.8181C15.0198 0 15.9999 0.97335 15.9999 2.16667V10.8333C15.9999 12.0266 15.0198 13 13.8181 13H2.18186C0.980208 13 5.95023e-05 12.0266 5.95023e-05 10.8333V2.16667Z" fill="black"/>
<path fill-rule="evenodd" clip-rule="evenodd" d="M0.131528 1.75248C0.361864 1.42571 0.815342 1.34627 1.14439 1.57501L8 6.34065L14.8556 1.57501C15.1847 1.34627 15.6381 1.42571 15.8685 1.75248C16.0988 2.07925 16.0188 2.52958 15.6897 2.75832L8.41706 7.81388C8.16665 7.98795 7.83335 7.98795 7.58294 7.81388L0.310271 2.75832C-0.0187805 2.52958 -0.0988078 2.07925 0.131528 1.75248Z" fill="black"/>
</g>
</svg>
