<svg width="16" height="19" viewBox="0 0 16 19" fill="none" xmlns="http://www.w3.org/2000/svg">
<g opacity="0.3">
<path fill-rule="evenodd" clip-rule="evenodd" d="M8 1.58335C6.30261 1.58335 4.67476 2.25061 3.47452 3.43835C2.27429 4.62609 1.6 6.23702 1.6 7.91673C1.6 10.3694 3.21259 12.7493 4.98076 14.5963C5.84849 15.5027 6.71893 16.2447 7.37334 16.7604C7.61689 16.9523 7.82962 17.1122 8 17.2368C8.17038 17.1122 8.38311 16.9523 8.62666 16.7604C9.28107 16.2447 10.1515 15.5027 11.0192 14.5963C12.7874 12.7493 14.4 10.3694 14.4 7.91673C14.4 6.23702 13.7257 4.62609 12.5255 3.43835C11.3253 2.25061 9.69739 1.58335 8 1.58335ZM8 18.2085C7.55624 18.8672 7.55581 18.8669 7.55581 18.8669L7.55353 18.8654L7.54819 18.8619L7.52986 18.8496C7.51428 18.8391 7.49206 18.8241 7.46365 18.8046C7.40683 18.7657 7.32518 18.7089 7.22224 18.6353C7.01645 18.4883 6.72509 18.2736 6.37666 17.999C5.68107 17.4509 4.75151 16.659 3.81924 15.6852C1.98741 13.7718 0 11.0058 0 7.91673C4.76837e-08 5.81709 0.842861 3.80345 2.34315 2.31878C3.84344 0.8341 5.87827 0 8 0C10.1217 0 12.1566 0.8341 13.6569 2.31878C15.1572 3.80345 16 5.81709 16 7.91673C16 11.0058 14.0126 13.7718 12.1808 15.6852C11.2485 16.659 10.3189 17.4509 9.62334 17.999C9.27491 18.2736 8.98357 18.4883 8.77777 18.6353C8.67483 18.7089 8.59317 18.7657 8.53635 18.8046C8.50794 18.8241 8.48573 18.8391 8.47015 18.8496L8.45182 18.8619L8.44648 18.8654L8.44479 18.8665C8.44479 18.8665 8.44376 18.8672 8 18.2085ZM8 18.2085L8.44376 18.8672C8.17504 19.0445 7.82453 19.0442 7.55581 18.8669L8 18.2085Z" fill="black"/>
<path fill-rule="evenodd" clip-rule="evenodd" d="M8 6.33339C7.11634 6.33339 6.4 7.04228 6.4 7.91673C6.4 8.79119 7.11634 9.50008 8 9.50008C8.88366 9.50008 9.6 8.79119 9.6 7.91673C9.6 7.04228 8.88366 6.33339 8 6.33339ZM4.8 7.91673C4.8 6.16782 6.23269 4.75004 8 4.75004C9.76731 4.75004 11.2 6.16782 11.2 7.91673C11.2 9.66565 9.76731 11.0834 8 11.0834C6.23269 11.0834 4.8 9.66565 4.8 7.91673Z" fill="black"/>
</g>
</svg>
