<svg width="14" height="14" viewBox="0 0 14 14" fill="none" xmlns="http://www.w3.org/2000/svg">
    <path opacity="0.5" d="M11.5975 14C11.5361 14 11.4747 14 11.4134 14C9.44979 13.7565 7.4862 13.0869 5.82942 12.0522C4.29536 11.0783 2.94539 9.73913 1.96359 8.21739C0.85907 6.57391 0.184087 4.62606 0 2.67824C0 2.19128 0.122723 1.70432 0.429534 1.3391C0.736346 0.973883 1.16588 0.73042 1.65678 0.66955C1.71814 0.66955 1.77951 0.66955 1.84087 0.66955H3.68174C4.60217 0.66955 5.39988 1.3391 5.52261 2.25214C5.58397 2.79997 5.70669 3.34782 5.89077 3.83477C6.13622 4.50434 5.95214 5.23478 5.46124 5.78261L5.03171 6.20867C5.76805 7.30432 6.68849 8.27825 7.85437 9.00869L8.28391 8.58259C8.77481 8.09564 9.57251 7.91302 10.2475 8.1565C10.7384 8.33911 11.2907 8.46087 11.8429 8.52174C12.7634 8.64348 13.4383 9.43478 13.4383 10.3478V12.1739C13.4383 12.6609 13.2543 13.1478 12.8861 13.4522C12.5179 13.7565 12.0884 14 11.5975 14ZM3.68174 1.88694H1.84087C1.65678 1.88694 1.47269 2.0087 1.34997 2.13043C1.28861 2.25217 1.22725 2.37388 1.22725 2.55649C1.41133 4.32171 2.02495 6.02606 3.00675 7.5478C3.92718 8.9478 5.09306 10.1652 6.5044 11.0174C8.03845 11.9913 9.75661 12.6 11.5361 12.7826C11.7816 12.7826 11.9043 12.7217 12.027 12.6C12.1497 12.4782 12.2111 12.3565 12.2111 12.1739V10.3478C12.2111 10.0435 11.9656 9.8 11.6588 9.73913C11.0452 9.67826 10.4316 9.49562 9.81797 9.25214C9.57252 9.19127 9.32706 9.19128 9.14298 9.37389L8.34527 10.1652C8.16118 10.3478 7.85437 10.4087 7.60892 10.2869C5.95214 9.37389 4.60217 8.03478 3.68174 6.3913C3.62037 6.14783 3.68174 5.84347 3.86583 5.66086L4.66353 4.86957C4.78625 4.74783 4.84762 4.44348 4.78626 4.26087C4.54081 3.65217 4.41808 3.04348 4.29536 2.43478C4.29536 2.13043 3.98855 1.88694 3.68174 1.88694ZM10.9838 6.14781C10.677 6.14781 10.4316 5.96521 10.3702 5.66086C10.1861 4.68695 9.38843 3.95651 8.40663 3.71303C8.09982 3.65216 7.85437 3.3478 7.91573 2.98259C7.97709 2.67824 8.2839 2.43477 8.65208 2.49564C10.1248 2.79998 11.2907 3.89564 11.5361 5.35651C11.5975 5.66086 11.4134 6.02609 11.0452 6.08696C11.0452 6.08696 11.0452 6.14781 10.9838 6.14781ZM13.4383 6.08696C13.1315 6.08696 12.8861 5.84346 12.8247 5.53912C12.5793 3.28694 10.7998 1.52174 8.468 1.21739C8.16119 1.15652 7.91573 0.852152 7.91573 0.547804C7.91573 0.243456 8.28391 0 8.59072 0C11.4747 0.304348 13.6838 2.49564 13.9906 5.35651C14.052 5.66086 13.8065 5.96519 13.4383 6.02606C13.4997 6.08693 13.4383 6.08696 13.4383 6.08696Z" fill="#F7F7F7"/>
</svg>
