<svg width="19" height="23" viewBox="0 0 19 23" fill="none" xmlns="http://www.w3.org/2000/svg">
    <path fill-rule="evenodd" clip-rule="evenodd" d="M0.927501 0.918633C1.52137 0.330451 2.32681 0 3.16667 0H10.5556C10.8355 0 11.104 0.110161 11.3019 0.306222L18.6908 7.6244C18.8888 7.82046 19 8.08636 19 8.36364V19.8636C19 20.6955 18.6664 21.4932 18.0725 22.0814C17.4786 22.6695 16.6732 23 15.8333 23H3.16667C2.32681 23 1.52137 22.6695 0.927501 22.0814C0.333636 21.4932 0 20.6955 0 19.8636V3.13636C0 2.30455 0.333636 1.50682 0.927501 0.918633ZM3.16667 2.09091C2.88672 2.09091 2.61824 2.20107 2.42028 2.39713C2.22233 2.59319 2.11111 2.85909 2.11111 3.13636V19.8636C2.11111 20.1409 2.22233 20.4068 2.42028 20.6029C2.61824 20.7989 2.88672 20.9091 3.16667 20.9091H15.8333C16.1133 20.9091 16.3818 20.7989 16.5797 20.6029C16.7777 20.4068 16.8889 20.1409 16.8889 19.8636V8.79668L10.1183 2.09091H3.16667Z" fill="white"/>
    <path fill-rule="evenodd" clip-rule="evenodd" d="M10.5556 0C11.1385 0 11.6111 0.468066 11.6111 1.04545V7.31818H17.9444C18.5274 7.31818 19 7.78625 19 8.36364C19 8.94102 18.5274 9.40909 17.9444 9.40909H10.5556C9.97259 9.40909 9.5 8.94102 9.5 8.36364V1.04545C9.5 0.468066 9.97259 0 10.5556 0Z" fill="white"/>
    <path d="M6 15L9.5 18.5M9.5 18.5L13 15M9.5 18.5V12" stroke="white" stroke-width="2" stroke-linecap="round" stroke-linejoin="round"/>
</svg>
