<svg width="19" height="15" viewBox="0 0 19 15" fill="#fff" xmlns="http://www.w3.org/2000/svg">
    <path d="M0 1.5C0 0.671573 0.671573 0 1.5 0H17.5C18.3284 0 19 0.671573 19 1.5C19 2.32843 18.3284 3 17.5 3H1.5C0.671573 3 0 2.32843 0 1.5Z"/>
    <path d="M0 7.5C0 6.67157 0.671573 6 1.5 6H17.5C18.3284 6 19 6.67157 19 7.5C19 8.32843 18.3284 9 17.5 9H1.5C0.671573 9 0 8.32843 0 7.5Z"/>
    <path d="M0 13.5C0 12.6716 0.671573 12 1.5 12H17.5C18.3284 12 19 12.6716 19 13.5C19 14.3284 18.3284 15 17.5 15H1.5C0.671573 15 0 14.3284 0 13.5Z"/>
</svg>
