<svg width="14" height="15" viewBox="0 0 14 15" fill="#fff" xmlns="http://www.w3.org/2000/svg">
    <path fill-rule="evenodd" clip-rule="evenodd" d="M2.1 2.72727C1.7134 2.72727 1.4 3.03253 1.4 3.40909V12.9545C1.4 13.3311 1.7134 13.6364 2.1 13.6364H11.9C12.2866 13.6364 12.6 13.3311 12.6 12.9545V3.40909C12.6 3.03253 12.2866 2.72727 11.9 2.72727H2.1ZM0 3.40909C0 2.27942 0.940202 1.36364 2.1 1.36364H11.9C13.0598 1.36364 14 2.27942 14 3.40909V12.9545C14 14.0842 13.0598 15 11.9 15H2.1C0.940202 15 0 14.0842 0 12.9545V3.40909Z"/>
    <path fill-rule="evenodd" clip-rule="evenodd" d="M9.8 0C10.1866 0 10.5 0.30526 10.5 0.681818V3.40909C10.5 3.78565 10.1866 4.09091 9.8 4.09091C9.4134 4.09091 9.1 3.78565 9.1 3.40909V0.681818C9.1 0.30526 9.4134 0 9.8 0Z"/>
    <path fill-rule="evenodd" clip-rule="evenodd" d="M4.2 0C4.5866 0 4.9 0.30526 4.9 0.681818V3.40909C4.9 3.78565 4.5866 4.09091 4.2 4.09091C3.8134 4.09091 3.5 3.78565 3.5 3.40909V0.681818C3.5 0.30526 3.8134 0 4.2 0Z"/>
    <path fill-rule="evenodd" clip-rule="evenodd" d="M0 6.13636C0 5.75981 0.313401 5.45455 0.7 5.45455H13.3C13.6866 5.45455 14 5.75981 14 6.13636C14 6.51292 13.6866 6.81818 13.3 6.81818H0.7C0.313401 6.81818 0 6.51292 0 6.13636Z"/>
</svg>
