<svg width="11" height="9" viewBox="0 0 11 9" fill="#D60000" xmlns="http://www.w3.org/2000/svg">
    <path fill-rule="evenodd" clip-rule="evenodd" d="M1.50003 1C1.22617 1 1.00003 1.22614 1.00003 1.5V7.5C1.00003 7.77386 1.22617 8 1.50003 8H9.49997C9.77382 8 9.99996 7.77386 9.99996 7.5V1.5C9.99996 1.22614 9.77382 1 9.49997 1H1.50003ZM4.09078e-05 1.5C4.09078e-05 0.673858 0.673893 0 1.50003 0H9.49997C10.3261 0 11 0.673858 11 1.5V7.5C11 8.32614 10.3261 9 9.49997 9H1.50003C0.673893 9 4.09078e-05 8.32614 4.09078e-05 7.5V1.5Z"/>
    <path fill-rule="evenodd" clip-rule="evenodd" d="M0.0904257 1.21326C0.248782 0.987032 0.560547 0.932036 0.78677 1.09039L5.5 4.38968L10.2132 1.09039C10.4395 0.932036 10.7512 0.987032 10.9096 1.21326C11.0679 1.43948 11.0129 1.75125 10.7867 1.90961L5.78673 5.40961C5.61457 5.53012 5.38543 5.53012 5.21327 5.40961L0.213311 1.90961C-0.0129116 1.75125 -0.0679304 1.43948 0.0904257 1.21326Z"/>
</svg>
