<svg width="10" height="12" viewBox="0 0 10 12" xmlns="http://www.w3.org/2000/svg">
    <path fill-rule="evenodd" clip-rule="evenodd" d="M5 1.00001C3.93913 1.00001 2.92172 1.42144 2.17158 2.17159C1.42143 2.92174 1 3.93917 1 5.00004C1 6.54908 2.00787 8.05219 3.11298 9.21871C3.65531 9.79117 4.19933 10.2598 4.60834 10.5855C4.76056 10.7067 4.89351 10.8077 5 10.8864C5.10649 10.8077 5.23944 10.7067 5.39166 10.5855C5.80067 10.2598 6.34469 9.79117 6.88702 9.21871C7.99213 8.05219 9 6.54908 9 5.00004C9 3.93917 8.57858 2.92174 7.82843 2.17159C7.07828 1.42144 6.06087 1.00001 5 1.00001ZM5 11.5001C4.72265 11.9161 4.72238 11.9159 4.72238 11.9159L4.72095 11.915L4.71762 11.9128L4.70616 11.905C4.69643 11.8984 4.68254 11.8889 4.66478 11.8766C4.62927 11.852 4.57824 11.8162 4.5139 11.7697C4.38528 11.6768 4.20318 11.5412 3.98541 11.3678C3.55067 11.0216 2.96969 10.5215 2.38702 9.90646C1.24213 8.69795 0 6.95103 0 5.00004C2.98023e-08 3.67395 0.526788 2.40218 1.46447 1.46449C2.40215 0.5268 3.67392 0 5 0C6.32608 0 7.59786 0.5268 8.53554 1.46449C9.47322 2.40218 10 3.67395 10 5.00004C10 6.95103 8.75787 8.69795 7.61298 9.90646C7.03031 10.5215 6.44933 11.0216 6.01459 11.3678C5.79682 11.5412 5.61473 11.6768 5.48611 11.7697C5.42177 11.8162 5.37073 11.852 5.33522 11.8766C5.31746 11.8889 5.30358 11.8984 5.29385 11.905L5.28239 11.9128L5.27905 11.915L5.27799 11.9157C5.27799 11.9157 5.27735 11.9161 5 11.5001ZM5 11.5001L5.27735 11.9161C5.1094 12.0281 4.89033 12.0279 4.72238 11.9159L5 11.5001Z"/>
    <path fill-rule="evenodd" clip-rule="evenodd" d="M5 4.00003C4.44772 4.00003 4 4.44775 4 5.00004C4 5.55233 4.44772 6.00005 5 6.00005C5.55228 6.00005 6 5.55233 6 5.00004C6 4.44775 5.55228 4.00003 5 4.00003ZM3 5.00004C3 3.89546 3.89543 3.00003 5 3.00003C6.10457 3.00003 7 3.89546 7 5.00004C7 6.10462 6.10457 7.00006 5 7.00006C3.89543 7.00006 3 6.10462 3 5.00004Z"/>
</svg>
