<svg width="18" height="18" viewBox="0 0 18 18" xmlns="http://www.w3.org/2000/svg">
    <path fill-rule="evenodd" clip-rule="evenodd" d="M8.09999 1.8C4.6206 1.8 1.8 4.62061 1.8 8.10001C1.8 11.5794 4.6206 14.4 8.09999 14.4C11.5794 14.4 14.4 11.5794 14.4 8.10001C14.4 4.62061 11.5794 1.8 8.09999 1.8ZM0 8.10001C0 3.6265 3.62649 0 8.09999 0C12.5735 0 16.2 3.6265 16.2 8.10001C16.2 12.5735 12.5735 16.2 8.09999 16.2C3.62649 16.2 0 12.5735 0 8.10001Z"/>
    <path fill-rule="evenodd" clip-rule="evenodd" d="M12.5486 12.5486C12.9001 12.1971 13.4699 12.1971 13.8214 12.5486L17.7364 16.4636C18.0879 16.8151 18.0879 17.3849 17.7364 17.7364C17.3849 18.0879 16.8151 18.0879 16.4636 17.7364L12.5486 13.8214C12.1971 13.4699 12.1971 12.9001 12.5486 12.5486Z"/>
</svg>
