<svg width="12" height="20" viewBox="0 0 12 20" fill="none" xmlns="http://www.w3.org/2000/svg">
<path d="M11 13.5V4C11 3.16667 10 1.5 8 1.5C6 1.5 5.16667 3.33333 5 4L4 6L1.66891 11M11 13.5C11 16.2614 8.76142 18.5 6 18.5C3.23858 18.5 1 16.2614 1 13.5C1 10.7386 3.23858 8.5 6 8.5C8.76142 8.5 11 10.7386 11 13.5ZM9 13.5002C9 15.1571 7.65685 16.5002 6 16.5002C4.34315 16.5002 3 15.1571 3 13.5002C3 11.8434 4.34315 10.5002 6 10.5002C7.65685 10.5002 9 11.8434 9 13.5002Z" stroke="#D60000" stroke-width="1.2"/>
</svg>
