<svg width="25" height="25" viewBox="0 0 25 25" fill="none" xmlns="http://www.w3.org/2000/svg">
<path d="M2.91667 11.25H2.08333V14.5833H2.91667V11.25Z" fill="white"/>
<path d="M5 11.25H4.16667V14.5833H5V11.25Z" fill="white"/>
<path d="M7.08333 11.25H6.25V14.5833H7.08333V11.25Z" fill="white"/>
<path d="M9.16667 11.25H8.33333V14.5833H9.16667V11.25Z" fill="white"/>
<path d="M11.25 11.25H10.4167V14.5833H11.25V11.25Z" fill="white"/>
<path d="M12.9169 18.3333H0.416667C0.186615 18.3333 5.20942e-05 18.5197 1.09088e-08 18.7498V24.5833C-5.20724e-05 24.8134 0.186406 24.9999 0.416458 25H12.9167C13.1467 25.0001 13.3333 24.8136 13.3333 24.5835V18.75C13.3334 18.5199 13.1469 18.3334 12.9169 18.3333ZM12.5 24.1667H0.833333V19.1667H12.5V24.1667Z" fill="white"/>
<path d="M2.91667 20H2.08333V23.3333H2.91667V20Z" fill="white"/>
<path d="M5 20H4.16667V23.3333H5V20Z" fill="white"/>
<path d="M7.08333 20H6.25V23.3333H7.08333V20Z" fill="white"/>
<path d="M9.16667 20H8.33333V23.3333H9.16667V20Z" fill="white"/>
<path d="M11.25 20H10.4167V23.3333H11.25V20Z" fill="white"/>
<path d="M24.5835 10.8333H22.9167V3.84349C23.8346 3.15536 24.0209 1.85339 23.3328 0.935417C22.6447 0.0174479 21.3427 -0.168854 20.4247 0.519271C19.9413 0.881667 19.6396 1.43656 19.5983 2.03932L8.33333 0.87401V0.416667C8.33339 0.186615 8.14693 5.20942e-05 7.91687 1.09086e-08H5.41667C5.18661 -5.20724e-05 5.00005 0.186406 5 0.416458V2.5C4.99995 2.73005 5.18641 2.91661 5.41646 2.91667H6.25V4.16667C6.24995 4.39672 6.43641 4.58328 6.66646 4.58333H6.875C7.45031 4.58333 7.91667 5.04969 7.91667 5.625C7.91667 6.20031 7.45031 6.66667 6.875 6.66667C6.29969 6.66667 5.83333 6.20031 5.83333 5.625H5C5.00198 6.19828 5.2675 6.7388 5.72005 7.09078L0.734844 9.58333H0.416667C0.186615 9.58328 5.20942e-05 9.76974 1.09088e-08 9.99979V15.8333C-5.20724e-05 16.0634 0.186406 16.2499 0.416458 16.25H12.9167C13.1467 16.2501 13.3333 16.0636 13.3333 15.8335V10C13.3334 9.76995 13.1469 9.58339 12.9169 9.58333H12.1887L7.82385 7.23302C8.7151 6.71234 9.01547 5.56781 8.49479 4.67656C8.19594 4.16505 7.67229 3.82547 7.08333 3.76135V2.91667H7.91667C8.14672 2.91672 8.33328 2.73026 8.33333 2.50021V1.71219L19.7137 2.88948C19.8506 3.26891 20.0948 3.60036 20.4167 3.84354V10.8333H16.6667C16.4366 10.8333 16.2501 11.0197 16.25 11.2498V17.0833H15.4167C15.1866 17.0833 15.0001 17.2697 15 17.4998V24.5833C14.9999 24.8134 15.1864 24.9999 15.4165 25H24.5833C24.8134 25.0001 24.9999 24.8136 25 24.5835V11.25C25.0001 11.0199 24.8136 10.8334 24.5835 10.8333ZM12.5 10.4167V15.4167H0.833333V10.4167H12.5ZM10.4304 9.58333H2.59854L6.65958 7.55292L10.4304 9.58333ZM7.5 2.08333H5.83333V0.833333H7.5V2.08333ZM21.6667 0.9375C22.357 0.9375 22.9167 1.49714 22.9167 2.1875C22.9167 2.87786 22.357 3.4375 21.6667 3.4375C20.9763 3.4375 20.4167 2.87786 20.4167 2.1875C20.4174 1.49745 20.9766 0.938229 21.6667 0.9375ZM22.5 13.3897L23.8879 14.5463L22.5 15.4715V13.3897ZM23.8879 18.2963L22.5 19.2215V17.1397L23.8879 18.2963ZM23.8879 22.0463L22.5 22.9715V20.8897L23.8879 22.0463ZM21.6667 24.1667H15.8333V17.9167H21.6667V24.1667ZM21.6667 17.0833H17.0833V11.6667H21.6667V17.0833ZM22.0833 10.8333H21.25V4.2287C21.5249 4.28484 21.8084 4.28484 22.0833 4.2287V10.8333ZM24.1667 24.1667H22.5V23.973L24.1667 22.8619V24.1667ZM24.1667 21.1936L22.7787 20.037L24.1667 19.1118V21.1936ZM24.1667 17.4436L22.7787 16.287L24.1667 15.3618V17.4436ZM24.1667 13.6936L22.5 12.3047V11.6667H24.1667V13.6936Z" fill="white"/>
<path d="M21.6667 1.5625C21.3215 1.5625 21.0417 1.84234 21.0417 2.1875C21.042 2.5325 21.3217 2.81214 21.6667 2.8125C22.0118 2.8125 22.2917 2.53266 22.2917 2.1875C22.2917 1.84234 22.0118 1.5625 21.6667 1.5625ZM21.6667 2.39583C21.5516 2.39583 21.4583 2.30255 21.4583 2.1875C21.4585 2.0725 21.5517 1.97932 21.6667 1.97917C21.7817 1.97917 21.875 2.07245 21.875 2.1875C21.875 2.30255 21.7817 2.39583 21.6667 2.39583Z" fill="white"/>
</svg>
