<svg width="24" height="28" viewBox="0 0 24 28" fill="none" xmlns="http://www.w3.org/2000/svg">
<path d="M23.4434 14.6279C22.2237 13.3471 20.8136 14.5459 20.8136 14.5459V7.80286C20.8136 7.57641 20.6397 7.3927 20.425 7.3927C20.2101 7.3927 20.0362 7.57641 20.0362 7.80286V15.1229C20.0362 15.1229 18.1822 16.6646 17.3854 17.0415V4.90034C17.3854 4.33594 17.8206 3.87686 18.3556 3.87686H19.066C19.601 3.87686 20.0362 4.33594 20.0362 4.90034V6.12376C20.0362 6.35042 20.2101 6.53392 20.425 6.53392C20.6397 6.53392 20.8136 6.35042 20.8136 6.12376V4.90034C20.8136 3.8837 20.0297 3.05676 19.066 3.05676H18.3556C17.3918 3.05676 16.6077 3.8837 16.6077 4.90034V17.3666C16.3759 17.4352 16.1379 17.4818 15.8961 17.5063V8.85944C15.8961 7.83768 15.1082 7.00646 14.1398 7.00646H13.4466C12.4782 7.00646 11.6902 7.83768 11.6902 8.85944V13.0384L10.9784 13.437V12.0463C10.9784 11.1264 10.269 10.3781 9.39724 10.3781H8.35392C7.48192 10.3781 6.77273 11.1264 6.77273 12.0463V15.792L5.50321 16.5027L1.93826 17.5775C1.31798 17.7644 0.799966 18.1929 0.480003 18.7838C0.159838 19.3749 0.0729622 20.0632 0.235373 20.7218L0.634112 22.3402C0.687979 22.5594 0.900207 22.6908 1.10818 22.634C1.31596 22.5769 1.4407 22.353 1.38663 22.1337L0.987893 20.5154C0.756629 19.5768 1.26796 18.6326 2.15211 18.3662L5.41148 17.3835L7.86121 24.2806C8.02524 24.7424 7.99932 26.0601 6.70348 26.5456L4.24037 27.1359C3.38194 27.3414 2.53607 26.7986 2.31452 25.8996L1.81453 23.87C1.76046 23.6508 1.54823 23.5192 1.34046 23.576C1.13248 23.6331 1.00794 23.857 1.06181 24.0764L1.562 26.1062C1.84308 27.2465 2.80338 28 3.87242 28C4.65794 28 6.87581 27.3455 6.87581 27.3455C7.55077 27.184 8.1263 26.7225 8.45456 26.0799C8.72552 25.5497 8.80591 24.9396 8.68967 24.3583L17.2112 22.1576C17.9159 21.9754 18.585 21.6222 19.1456 21.1362L23.2925 17.5418C24.5568 16.359 23.8152 15.0182 23.4434 14.6279ZM13.4466 7.82678H14.1398C14.6795 7.82678 15.1185 8.29013 15.1185 8.85944V17.5268L12.6651 17.5258C12.4397 17.5236 12.5956 17.3666 12.608 17.3559L13.3145 16.7522C13.9737 16.1889 14.4042 15.4058 14.594 14.4242C14.7145 13.8014 14.4893 13.1781 14.0067 12.7974C13.5559 12.4419 12.9762 12.3736 12.4679 12.6086V8.85944C12.4679 8.29013 12.9069 7.82678 13.4466 7.82678ZM7.55036 12.0463C7.55036 11.5789 7.91083 11.1984 8.35392 11.1984H9.39724C9.84032 11.1984 10.201 11.5789 10.201 12.0463V13.8724L7.55016 15.3566V12.0463H7.55036ZM22.799 16.9082L18.6518 20.5026C18.1808 20.9111 17.6187 21.2078 17.0263 21.3608L8.44201 23.578L6.13342 17.0789L12.725 13.3879C12.993 13.2377 13.2981 13.2627 13.541 13.4543C13.7838 13.6459 13.8927 13.9471 13.8322 14.2603C13.6793 15.0505 13.3405 15.6745 12.8251 16.1148L12.1185 16.7187C11.829 16.9661 11.7222 17.3653 11.8466 17.736C11.9709 18.1064 12.2921 18.3461 12.6647 18.3461L15.4996 18.3474C16.5081 18.3474 17.4773 18.0239 18.3023 17.4119L21.4683 15.0633C21.9116 14.7343 22.5084 14.7924 22.8871 15.2013C23.1052 15.4363 23.5321 16.1346 22.799 16.9082Z" fill="white"/>
<path d="M6.37217 24.5433C6.37217 23.6523 5.68506 22.9273 4.8404 22.9273C3.99574 22.9273 3.30863 23.6523 3.30863 24.5433C3.30863 25.4342 3.99574 26.1592 4.8404 26.1592C5.68506 26.1592 6.37217 25.4342 6.37217 24.5433ZM4.08626 24.5433C4.08626 24.1046 4.42445 23.7476 4.8404 23.7476C5.25615 23.7476 5.59454 24.1046 5.59454 24.5433C5.59454 24.9819 5.25635 25.3389 4.8404 25.3389C4.42445 25.3389 4.08626 24.9819 4.08626 24.5433Z" fill="white"/>
<path d="M2.04438 12.8779L7.69637 6.86974L8.96772 7.56338C9.42316 7.81183 9.97742 7.7268 10.3468 7.35168L13.4233 4.22763C13.4233 4.22763 13.3386 5.83217 14.6195 5.83217C15.2789 5.83217 15.8155 5.26606 15.8155 4.57029V1.26167C15.8155 1.25782 15.8153 1.25376 15.8153 1.2497C15.8111 0.386447 15.2127 0 14.6195 0H11.5104C10.8508 0 10.3144 0.566105 10.3144 1.26167C10.3144 2.64852 11.6524 2.52333 11.6524 2.52333L9.3053 4.90653L8.01553 4.20285C7.54915 3.94821 6.98719 4.04156 6.61701 4.43463L0.34655 11.1004C-0.118003 11.5943 -0.115168 12.3947 0.353031 12.8848C0.578624 13.1208 1.34896 13.6115 2.04438 12.8779ZM0.898384 11.6782L7.16884 5.01249C7.24984 4.92661 7.37985 4.77622 7.6583 4.93153L9.19554 5.77022C9.34357 5.85097 9.5238 5.82341 9.64389 5.70143L12.8864 2.40883C13.0007 2.29283 13.0367 2.1151 12.9774 1.96001C12.918 1.8047 12.7755 1.70323 12.6167 1.70323H11.5104C11.2797 1.70323 11.092 1.5052 11.092 1.26167C11.092 1.01835 11.2797 0.820319 11.5104 0.820319H14.6195C14.7339 0.820319 15.0377 0.820319 15.0377 1.2591C15.0377 1.26274 15.0379 1.26637 15.0379 1.27021V4.57029C15.0379 4.8136 14.8502 5.01163 14.6195 5.01163C14.3887 5.01163 14.2009 4.8136 14.2009 4.57029V3.26354C14.2009 3.09905 14.1078 2.95037 13.9644 2.88607C13.821 2.82155 13.655 2.85403 13.5426 2.9681L9.80752 6.76079C9.67832 6.89196 9.48432 6.92187 9.32514 6.83492L7.80026 6.00285C7.64939 5.92061 7.46531 5.95116 7.34563 6.07826L1.49254 12.3001C1.23738 12.5692 0.97959 12.3851 0.900612 12.3024C0.736986 12.1309 0.735973 11.8508 0.898384 11.6782Z" fill="white"/>
</svg>
