<svg width="28" height="24" viewBox="0 0 28 24" fill="none" xmlns="http://www.w3.org/2000/svg">
<path d="M27.5332 19.3845H0.466766C0.209137 19.3845 0 19.1779 0 18.9231V17.0769C0 16.8221 0.209137 16.6153 0.466766 16.6153H27.5332C27.7909 16.6153 28 16.8221 28 17.0769V18.9231C28 19.1779 27.7909 19.3845 27.5332 19.3845ZM0.933319 18.4614H27.0667V17.5384H0.933319V18.4614Z" fill="white"/>
<path d="M27.5332 24H0.466766C0.209137 24 0 23.7932 0 23.5384V21.6922C0 21.4374 0.209137 21.2308 0.466766 21.2308H27.5332C27.7909 21.2308 28 21.4374 28 21.6922V23.5384C28 23.7932 27.7909 24 27.5332 24ZM0.933319 23.0769H27.0667V22.1539H0.933319V23.0769Z" fill="white"/>
<path d="M5.13336 22.1539H2.3334C2.07578 22.1539 1.86664 21.947 1.86664 21.6922V18.9231C1.86664 18.6683 2.07578 18.4614 2.3334 18.4614H5.13336C5.39099 18.4614 5.59991 18.6683 5.59991 18.9231V21.6922C5.59991 21.947 5.39099 22.1539 5.13336 22.1539ZM2.79996 21.2308H4.6666V19.3845H2.79996V21.2308Z" fill="white"/>
<path d="M25.2 22.1539H22.4001C22.1425 22.1539 21.9333 21.947 21.9333 21.6922V18.9231C21.9333 18.6683 22.1425 18.4614 22.4001 18.4614H25.2C25.4577 18.4614 25.6666 18.6683 25.6666 18.9231V21.6922C25.6666 21.947 25.4577 22.1539 25.2 22.1539ZM22.8666 21.2308H24.7333V19.3845H22.8666V21.2308Z" fill="white"/>
<path d="M15.4001 22.1539H12.5999C12.3425 22.1539 12.1334 21.947 12.1334 21.6922V18.9231C12.1334 18.6683 12.3425 18.4614 12.5999 18.4614H15.4001C15.6575 18.4614 15.8666 18.6683 15.8666 18.9231V21.6922C15.8666 21.947 15.6575 22.1539 15.4001 22.1539ZM13.0667 21.2308H14.9333V19.3845H13.0667V21.2308Z" fill="white"/>
<path d="M14 17.5384H2.79996C2.54233 17.5384 2.3334 17.3317 2.3334 17.0769V8.76918C2.3334 8.51438 2.54233 8.30776 2.79996 8.30776H14C14.2576 8.30776 14.4668 8.51438 14.4668 8.76918V17.0769C14.4668 17.3317 14.2576 17.5384 14 17.5384ZM3.26672 16.6153H13.5332V9.23082H3.26672V16.6153Z" fill="white"/>
<path d="M10.2667 12.9231C10.1672 12.9231 10.0687 12.8916 9.98624 12.8307L8.39944 11.6537L6.81287 12.8307C6.67145 12.9355 6.48239 12.9526 6.32431 12.8747C6.16644 12.7965 6.06625 12.6364 6.06625 12.4614V8.76918C6.06625 8.51438 6.27518 8.30776 6.53281 8.30776H10.2663C10.5237 8.30776 10.7328 8.51438 10.7328 8.76918V12.4614C10.7328 12.6364 10.6331 12.7961 10.4748 12.8747C10.409 12.9068 10.3381 12.9231 10.2667 12.9231ZM8.40009 10.6153C8.49857 10.6153 8.59683 10.6464 8.67993 10.7076L9.79996 11.5384V9.23082H7V11.5384L8.12003 10.7076C8.20312 10.6464 8.30161 10.6153 8.40009 10.6153Z" fill="white"/>
<path d="M25.2 17.5384H14C13.7424 17.5384 13.5332 17.3317 13.5332 17.0769V8.76918C13.5332 8.51438 13.7424 8.30776 14 8.30776H25.2C25.4577 8.30776 25.6666 8.51438 25.6666 8.76918V17.0769C25.6666 17.3317 25.4577 17.5384 25.2 17.5384ZM14.4668 16.6153H24.7333V9.23082H14.4668V16.6153Z" fill="white"/>
<path d="M21.4668 12.9231C21.3672 12.9231 21.2687 12.8916 21.1863 12.8307L19.5995 11.6537L18.0129 12.8307C17.8715 12.9355 17.6824 12.9526 17.5244 12.8747C17.3665 12.7965 17.2663 12.6364 17.2663 12.4614V8.76918C17.2663 8.51438 17.4752 8.30776 17.7328 8.30776H21.4661C21.7238 8.30776 21.9329 8.51438 21.9329 8.76918V12.4614C21.9329 12.6364 21.8329 12.7961 21.6748 12.8747C21.609 12.9068 21.5381 12.9231 21.4668 12.9231ZM19.5999 10.6153C19.6984 10.6153 19.7969 10.6464 19.88 10.7076L21 11.5384V9.23082H18.2V11.5384L19.3201 10.7076C19.4032 10.6464 19.5014 10.6153 19.5999 10.6153Z" fill="white"/>
<path d="M19.5999 9.23082H8.40009C8.14246 9.23082 7.93332 9.02398 7.93332 8.76918V0.461636C7.93332 0.206838 8.14246 0 8.40009 0H19.5999C19.8575 0 20.0667 0.206838 20.0667 0.461636V8.76918C20.0667 9.02398 19.8575 9.23082 19.5999 9.23082ZM8.86664 8.30776H19.1334V0.923061H8.86664V8.30776Z" fill="white"/>
<path d="M15.8666 4.6153C15.7673 4.6153 15.6688 4.58403 15.5862 4.52298L13.9996 3.34617L12.4128 4.52298C12.2714 4.62777 12.0825 4.64488 11.9242 4.56692C11.7666 4.48896 11.6662 4.32881 11.6662 4.15388V0.461636C11.6662 0.206838 11.8753 0 12.1329 0H15.8662C16.1238 0 16.3328 0.206838 16.3328 0.461636V4.15388C16.3328 4.32881 16.233 4.48854 16.0747 4.56692C16.0089 4.59925 15.938 4.6153 15.8666 4.6153ZM14 2.30776C14.0985 2.30776 14.197 2.3386 14.2801 2.40008L15.4001 3.23082V0.923061H12.5999V3.23082L13.7199 2.40008C13.803 2.3386 13.9015 2.30776 14 2.30776Z" fill="white"/>
</svg>
