<svg width="34" height="42" viewBox="0 0 34 42" fill="none" xmlns="http://www.w3.org/2000/svg">
<path d="M17 3.28207C16.5517 3.28207 16.1913 3.64793 16.1913 4.10156C16.1913 4.52378 16.5047 4.87512 16.919 4.91679C17.3987 4.96502 17.8087 4.58645 17.8087 4.10156C17.8087 3.64727 17.4477 3.28207 17 3.28207Z" fill="#D60000"/>
<path d="M33.1905 4.92188C30.9586 4.92188 29.1429 3.08191 29.1429 0.820312C29.1429 0.367336 28.7804 0 28.3333 0H5.66667C5.21965 0 4.85714 0.367336 4.85714 0.820312C4.85714 3.08191 3.04138 4.92188 0.809524 4.92188C0.362505 4.92188 0 5.28921 0 5.74219V19.1289C0 29.5614 6.71055 38.9095 16.7675 41.9655C16.8434 41.9884 16.9216 42 17 42C17.0784 42 17.1568 41.9884 17.2326 41.9654C27.0717 38.9746 34 29.7896 34 19.1289V5.74219C34 5.28921 33.6375 4.92188 33.1905 4.92188ZM32.381 19.1289C32.381 28.9273 26.2107 37.413 17 40.3219C7.86274 37.4362 1.61905 28.8737 1.61905 19.1289V6.50409C4.09708 6.14332 6.06252 4.15168 6.41855 1.64062H27.5814C27.9375 4.15168 29.9029 6.14332 32.381 6.50409V19.1289Z" fill="#D60000"/>
<path d="M30.2772 7.58707C28.589 6.83788 27.2521 5.48313 26.5127 3.77245C26.3837 3.47402 26.0927 3.28125 25.7712 3.28125H20.2365C19.7895 3.28125 19.427 3.64859 19.427 4.10156C19.427 4.55454 19.7895 4.92188 20.2365 4.92188H25.2593C26.1146 6.61836 27.4687 7.99042 29.1429 8.85716V19.1289C29.1429 27.1567 24.387 34.0834 17 36.8561C9.61301 34.0833 4.85714 27.1567 4.85714 19.1289V8.85716C6.53132 7.99042 7.88533 6.61836 8.74067 4.92188H13.7635C14.2105 4.92188 14.573 4.55454 14.573 4.10156C14.573 3.64859 14.2105 3.28125 13.7635 3.28125H8.22881C7.90727 3.28125 7.61632 3.47411 7.48729 3.77245C6.74795 5.48313 5.41102 6.83788 3.72284 7.58707C3.42841 7.71783 3.2381 8.01273 3.2381 8.33848V19.1289C3.2381 27.9237 8.60613 35.5887 16.7299 38.5019C16.8173 38.5332 16.9086 38.5489 17 38.5489C17.0914 38.5489 17.1827 38.5332 17.2701 38.5019C25.3871 35.5911 30.7619 27.9308 30.7619 19.1289V8.33848C30.7619 8.01265 30.5716 7.71783 30.2772 7.58707Z" fill="#D60000"/>
<path d="M17 11.9766C12.9827 11.9766 9.71429 15.2885 9.71429 19.3594C9.71429 23.4303 12.9827 26.7422 17 26.7422C21.0173 26.7422 24.2857 23.4303 24.2857 19.3594C24.2857 15.2885 21.0173 11.9766 17 11.9766ZM17 25.1016C13.8754 25.1016 11.3333 22.5256 11.3333 19.3594C11.3333 16.1931 13.8754 13.6172 17 13.6172C20.1246 13.6172 22.6667 16.1931 22.6667 19.3594C22.6667 22.5256 20.1246 25.1016 17 25.1016Z" fill="#D60000"/>
<path d="M20.8105 17.1386C20.4943 16.8184 19.9819 16.8184 19.6656 17.1386L16.1905 20.6601L15.1438 19.5996C14.8276 19.2794 14.3152 19.2794 13.9989 19.5996C13.6828 19.92 13.6828 20.4394 13.9989 20.7598L15.618 22.4004C15.7762 22.5605 15.9832 22.6406 16.1905 22.6406C16.3977 22.6406 16.6048 22.5605 16.7629 22.4004L20.8105 18.2988C21.1266 17.9785 21.1266 17.459 20.8105 17.1386Z" fill="#D60000"/>
</svg>
